<?xml version="1.0" encoding="utf-8"?>
<!-- Generator: Adobe Illustrator 25.4.1, SVG Export Plug-In . SVG Version: 6.00 Build 0)  -->
<svg version="1.1" id="레이어_1" xmlns="http://www.w3.org/2000/svg" xmlns:xlink="http://www.w3.org/1999/xlink" x="0px"
	 y="0px" viewBox="0 0 40 40" style="enable-background:new 0 0 40 40;" xml:space="preserve">
<style type="text/css">
	.st0{fill:#FFFFFF;}
	.st1{fill:#E9E9E9;}
	.st2{fill:none;stroke:#A8A8A8;stroke-width:1.667;stroke-linecap:round;stroke-linejoin:round;}
</style>
<g id="그룹_53" transform="translate(-1284.5 -602.5)">
	<g transform="matrix(1, 0, 0, 1, 1284.5, 602.5)">
		<g id="패스_5-2" transform="translate(2.5 4.5)">
			<path class="st0" d="M17.52,35.12c-2.63,0-5.19-0.52-7.59-1.53c-2.32-0.98-4.41-2.39-6.2-4.18c-1.79-1.79-3.2-3.88-4.18-6.2
				c-1.02-2.4-1.53-4.96-1.53-7.59s0.52-5.19,1.53-7.59c0.98-2.32,2.39-4.41,4.18-6.2s3.88-3.2,6.2-4.18
				c2.4-1.02,4.96-1.53,7.59-1.53s5.19,0.52,7.59,1.53c2.32,0.98,4.41,2.39,6.2,4.18c1.79,1.79,3.2,3.88,4.18,6.2
				c1.02,2.4,1.53,4.96,1.53,7.59s-0.52,5.19-1.53,7.59c-0.98,2.32-2.39,4.41-4.18,6.2c-1.79,1.79-3.88,3.2-6.2,4.18
				C22.71,34.6,20.16,35.12,17.52,35.12z"/>
			<path class="st1" d="M17.52-3.38c-2.57,0-5.05,0.5-7.4,1.49C7.87-0.93,5.83,0.44,4.09,2.18C2.34,3.93,0.97,5.96,0.02,8.22
				c-0.99,2.34-1.49,4.83-1.49,7.4s0.5,5.05,1.49,7.4c0.96,2.26,2.33,4.29,4.07,6.04c1.75,1.75,3.78,3.12,6.04,4.07
				c2.34,0.99,4.83,1.49,7.4,1.49s5.05-0.5,7.4-1.49c2.26-0.96,4.29-2.33,6.04-4.07c1.75-1.75,3.12-3.78,4.07-6.04
				c0.99-2.34,1.49-4.83,1.49-7.4s-0.5-5.05-1.49-7.4c-0.96-2.26-2.33-4.29-4.07-6.04c-1.75-1.75-3.78-3.12-6.04-4.07
				C22.58-2.88,20.09-3.38,17.52-3.38 M17.52-4.38c11.05,0,20,8.95,20,20s-8.95,20-20,20s-20-8.95-20-20S6.48-4.38,17.52-4.38z"/>
		</g>
	</g>
	<g id="Icon_feather-globe" transform="translate(1297.333 617.333)">
		<path id="패스_14" class="st2" d="M15.86,5.62c0,4.6-3.73,8.33-8.33,8.33s-8.33-3.73-8.33-8.33s3.73-8.33,8.33-8.33
			C12.13-2.72,15.86,1.01,15.86,5.62L15.86,5.62z"/>
		<path id="패스_17" class="st2" d="M0.19,2.62h14.29"/>
		<path id="패스_18" class="st2" d="M0.19,8.62h14.29"/>
		<path id="패스_16" class="st2" d="M7.52-2.72c2.08,2.28,3.27,5.24,3.33,8.33c-0.06,3.09-1.25,6.05-3.33,8.33
			c-2.08-2.28-3.27-5.24-3.33-8.33C4.25,2.53,5.44-0.43,7.52-2.72z"/>
	</g>
</g>
</svg>
