<?xml version="1.0" encoding="utf-8"?>
<!-- Generator: Adobe Illustrator 25.4.1, SVG Export Plug-In . SVG Version: 6.00 Build 0)  -->
<svg version="1.1" id="레이어_1" xmlns="http://www.w3.org/2000/svg" xmlns:xlink="http://www.w3.org/1999/xlink" x="0px"
	 y="0px" viewBox="0 0 40 40" style="enable-background:new 0 0 40 40;" xml:space="preserve">
<style type="text/css">
	.st0{fill:#FFFFFF;}
	.st1{fill:#E9E9E9;}
	.st2{fill:none;}
	.st3{fill:none;stroke:#A8A8A8;stroke-width:2;}
	.st4{fill:#A8A8A8;}
</style>
<g id="그룹_36" transform="translate(-1306.5 -549.5)">
	<g id="그룹_35">
		<g transform="matrix(1, 0, 0, 1, 1306.5, 549.5)">
			<g id="패스_5-2" transform="translate(2.5 4.5)">
				<path class="st0" d="M17.5,35c-2.63,0-5.19-0.52-7.59-1.53c-2.32-0.98-4.41-2.39-6.2-4.18c-1.79-1.79-3.2-3.88-4.18-6.2
					C-1.48,20.69-2,18.13-2,15.5s0.52-5.19,1.53-7.59c0.98-2.32,2.39-4.41,4.18-6.2s3.88-3.2,6.2-4.18C12.31-3.48,14.87-4,17.5-4
					s5.19,0.52,7.59,1.53c2.32,0.98,4.41,2.39,6.2,4.18c1.79,1.79,3.2,3.88,4.18,6.2c1.02,2.4,1.53,4.96,1.53,7.59
					s-0.52,5.19-1.53,7.59c-0.98,2.32-2.39,4.41-4.18,6.2c-1.79,1.79-3.88,3.2-6.2,4.18C22.69,34.48,20.13,35,17.5,35z"/>
				<path class="st1" d="M17.5-3.5c-2.57,0-5.05,0.5-7.4,1.49C7.84-1.05,5.81,0.32,4.06,2.06C2.32,3.81,0.95,5.84-0.01,8.1
					C-1,10.45-1.5,12.93-1.5,15.5s0.5,5.05,1.49,7.4c0.96,2.26,2.33,4.29,4.07,6.04c1.75,1.75,3.78,3.12,6.04,4.07
					c2.34,0.99,4.83,1.49,7.4,1.49s5.05-0.5,7.4-1.49c2.26-0.96,4.29-2.33,6.04-4.07c1.75-1.75,3.12-3.78,4.07-6.04
					c0.99-2.34,1.49-4.83,1.49-7.4s-0.5-5.05-1.49-7.4c-0.96-2.26-2.33-4.29-4.07-6.04c-1.75-1.75-3.78-3.12-6.04-4.07
					C22.55-3,20.07-3.5,17.5-3.5 M17.5-4.5c11.05,0,20,8.95,20,20s-8.95,20-20,20s-20-8.95-20-20S6.45-4.5,17.5-4.5z"/>
			</g>
		</g>
		<g id="그룹_33" transform="translate(-1 -41)">
			<g id="타원_6" transform="translate(1323 608)">
				<circle class="st2" cx="4.5" cy="2.5" r="7"/>
				<circle class="st3" cx="4.5" cy="2.5" r="6"/>
			</g>
			<circle id="타원_7" class="st4" cx="1327.5" cy="610.5" r="2"/>
			<path id="사각형_12" class="st4" d="M1327.5,600.5L1327.5,600.5c0.55,0,1,0.45,1,1v3l0,0h-2l0,0v-3
				C1326.5,600.95,1326.95,600.5,1327.5,600.5z"/>
			<path id="사각형_16" class="st4" d="M1327.5,616.5L1327.5,616.5c0.55,0,1,0.45,1,1v2c0,0.55-0.45,1-1,1l0,0
				c-0.55,0-1-0.45-1-1v-2C1326.5,616.95,1326.95,616.5,1327.5,616.5z"/>
			<path id="사각형_14" class="st4" d="M1337.5,610.5L1337.5,610.5c0,0.55-0.45,1-1,1h-2c-0.55,0-1-0.45-1-1l0,0
				c0-0.55,0.45-1,1-1h2C1337.05,609.5,1337.5,609.95,1337.5,610.5z"/>
			<path id="사각형_15" class="st4" d="M1321.5,610.5L1321.5,610.5c0,0.55-0.45,1-1,1h-2c-0.55,0-1-0.45-1-1l0,0
				c0-0.55,0.45-1,1-1h2C1321.05,609.5,1321.5,609.95,1321.5,610.5z"/>
		</g>
	</g>
</g>
</svg>
