<?xml version="1.0" encoding="utf-8"?>
<!-- Generator: Adobe Illustrator 25.4.1, SVG Export Plug-In . SVG Version: 6.00 Build 0)  -->
<svg version="1.1" id="레이어_1" xmlns="http://www.w3.org/2000/svg" xmlns:xlink="http://www.w3.org/1999/xlink" x="0px"
	 y="0px" viewBox="0 0 30 31" style="enable-background:new 0 0 30 31;" xml:space="preserve">
<style type="text/css">
	.st0{fill:#A8A8A8;}
</style>
<path id="Icon_ionic-ios-search" class="st0" d="M29.5,28.2l-8.35-8.42c4.08-5.15,3.21-12.63-1.94-16.7S6.59-0.13,2.51,5.02
	s-3.21,12.63,1.94,16.7c4.38,3.47,10.58,3.42,14.9-0.12l8.29,8.37c0.49,0.51,1.3,0.53,1.81,0.05C29.97,29.53,29.99,28.71,29.5,28.2z
	 M11.82,21.71c-5.19,0-9.39-4.21-9.39-9.39s4.21-9.39,9.39-9.39s9.39,4.21,9.39,9.39c0,2.49-0.99,4.88-2.75,6.64
	C16.7,20.72,14.31,21.71,11.82,21.71z"/>
</svg>
