<?xml version="1.0" encoding="utf-8"?>
<!-- Generator: Adobe Illustrator 25.4.1, SVG Export Plug-In . SVG Version: 6.00 Build 0)  -->
<svg version="1.1" id="레이어_1" xmlns="http://www.w3.org/2000/svg" xmlns:xlink="http://www.w3.org/1999/xlink" x="0px"
	 y="0px" viewBox="0 0 14 16" style="enable-background:new 0 0 14 16;" xml:space="preserve">
<style type="text/css">
	.st0{fill:#A8A8A8;}
</style>
<path id="Icon_awesome-building" class="st0" d="M13.62,15H13V0.75C13,0.34,12.66,0,12.25,0H1.75C1.34,0,1,0.34,1,0.75V15H0.38
	C0.17,15,0,15.17,0,15.38V16h14v-0.62C14,15.17,13.83,15,13.62,15z M4,2.38C4,2.17,4.17,2,4.38,2h1.25C5.83,2,6,2.17,6,2.38v1.25
	C6,3.83,5.83,4,5.62,4l0,0H4.38C4.17,4,4,3.83,4,3.62l0,0V2.38z M4,5.38C4,5.17,4.17,5,4.38,5h1.25C5.83,5,6,5.17,6,5.38v1.25
	C6,6.83,5.83,7,5.62,7H4.38C4.17,7,4,6.83,4,6.62V5.38z M5.62,10H4.38C4.17,10,4,9.83,4,9.62V8.38C4,8.17,4.17,8,4.38,8h1.25
	C5.83,8,6,8.17,6,8.38v1.25C6,9.83,5.83,10,5.62,10z M8,15H6v-2.62C6,12.17,6.17,12,6.38,12h1.25C7.83,12,8,12.17,8,12.38V15z
	 M10,9.62C10,9.83,9.83,10,9.62,10H8.38C8.17,10,8,9.83,8,9.62V8.38C8,8.17,8.17,8,8.38,8h1.25C9.83,8,10,8.17,10,8.38V9.62z
	 M10,6.62C10,6.83,9.83,7,9.62,7H8.38C8.17,7,8,6.83,8,6.62V5.38C8,5.17,8.17,5,8.38,5h1.25C9.83,5,10,5.17,10,5.38V6.62z M10,3.62
	C10,3.83,9.83,4,9.62,4l0,0H8.38C8.17,4,8,3.83,8,3.62l0,0V2.38C8,2.17,8.17,2,8.38,2h1.25C9.83,2,10,2.17,10,2.38V3.62z"/>
</svg>
