<?xml version="1.0" encoding="utf-8"?>
<!-- Generator: Adobe Illustrator 25.4.1, SVG Export Plug-In . SVG Version: 6.00 Build 0)  -->
<svg version="1.1" id="레이어_1" xmlns="http://www.w3.org/2000/svg" xmlns:xlink="http://www.w3.org/1999/xlink" x="0px"
	 y="0px" viewBox="0 0 40 40" style="enable-background:new 0 0 40 40;" xml:space="preserve">
<style type="text/css">
	.st0{fill:#FFFFFF;}
	.st1{fill:#E9E9E9;}
	.st2{fill:#A8A8A8;}
</style>
<g id="그룹_52" transform="translate(-135.5 -311.5)">
	<g id="그룹_36" transform="translate(-1171 -238)">
		<g id="그룹_35">
			<g transform="matrix(1, 0, 0, 1, 1306.5, 549.5)">
				<g id="패스_5-2" transform="translate(2.5 4.5)">
					<path class="st0" d="M17.63,34.95c-2.63,0-5.19-0.52-7.59-1.53c-2.32-0.98-4.41-2.39-6.2-4.18c-1.79-1.79-3.2-3.88-4.18-6.2
						c-1.02-2.4-1.53-4.96-1.53-7.59s0.52-5.19,1.53-7.59c0.98-2.32,2.39-4.41,4.18-6.2s3.88-3.2,6.2-4.18
						c2.4-1.02,4.96-1.53,7.59-1.53s5.19,0.52,7.59,1.53c2.32,0.98,4.41,2.39,6.2,4.18c1.79,1.79,3.2,3.88,4.18,6.2
						c1.02,2.4,1.53,4.96,1.53,7.59s-0.52,5.19-1.53,7.59c-0.98,2.32-2.39,4.41-4.18,6.2c-1.79,1.79-3.88,3.2-6.2,4.18
						C22.81,34.43,20.26,34.95,17.63,34.95z"/>
					<path class="st1" d="M17.63-3.55c-2.57,0-5.05,0.5-7.4,1.49C7.97-1.1,5.94,0.27,4.19,2.01C2.45,3.76,1.08,5.79,0.12,8.05
						c-0.99,2.34-1.49,4.83-1.49,7.4s0.5,5.05,1.49,7.4c0.96,2.26,2.33,4.29,4.07,6.04c1.75,1.75,3.78,3.12,6.04,4.07
						c2.34,0.99,4.83,1.49,7.4,1.49s5.05-0.5,7.4-1.49c2.26-0.96,4.29-2.33,6.04-4.07c1.75-1.75,3.12-3.78,4.07-6.04
						c0.99-2.34,1.49-4.83,1.49-7.4s-0.5-5.05-1.49-7.4c-0.96-2.26-2.33-4.29-4.07-6.04c-1.75-1.75-3.78-3.12-6.04-4.07
						C22.68-3.05,20.19-3.55,17.63-3.55 M17.63-4.55c11.05,0,20,8.95,20,20s-8.95,20-20,20s-20-8.95-20-20S6.58-4.55,17.63-4.55z"/>
				</g>
			</g>
		</g>
	</g>
	<path id="Icon_material-navigation" class="st2" d="M163.47,325.02l-15.41,5.82l-0.03,0.84l5.69,2.43l2.03,5.84l0.84,0.03
		L163.47,325.02z"/>
</g>
</svg>
