<svg version="1.2" xmlns="http://www.w3.org/2000/svg" viewBox="0 0 132 212" width="132" height="212">
	<title>Zener_Wave_Card-svg</title>
	<style>
		.s0 { fill: #ffffff;stroke: #000000;stroke-linecap: round;stroke-linejoin: round;stroke-width: 4 } 
		.s1 { fill: #094cf6 } 
		.s2 { fill: #00ff00 } 
	</style>
	<g id="g1916">
		<path id="rect2081" class="s0" d="m17.3 2h97c8.5 0 15.3 6.8 15.3 15.3v177.4c0 8.4-6.8 15.2-15.3 15.2h-97c-8.5 0-15.3-6.8-15.3-15.2v-177.4c0-8.5 6.8-15.3 15.3-15.3z"/>
		<g id="g6261">
			<path id="path2161" class="s1" d="m64.2 144.2c2.5-5.2 3.3-11.4 0.5-16.6-2.1-4.1-4.8-7.8-7.4-11.6-4.1-5.3-7.3-11.9-5.8-18.6 0.8-4.8 3.7-9 6-13.2 2.3-3.7 4.5-7.8 5.6-12.1 1.1-5.8-0.7-14.5-4.7-19.1h12.1c2.8 4.5 6.1 9.4 5.6 14.9 0.4 7.2-4.2 13.3-7.4 19.5-3.7 5.9-6.5 13.3-3.4 20 2.9 6.4 7.6 11.7 11 17.8 2.9 4.5 3.1 10.1 2 15.2-2.1 5.6-5.2 12.7-7.7 18.1h-13.1c1.6-5 4.4-9.6 6.7-14.3z"/>
			<path id="path2248" class="s1" d="m43.9 144.2c2.5-5.2 3.3-11.4 0.6-16.6-2.1-4.1-4.9-7.8-7.5-11.6-4-5.3-7.2-11.9-5.8-18.6 0.8-4.8 3.8-9 6.1-13.2 2.2-3.7 4.4-7.8 5.5-12.1 1.1-5.8-0.6-14.5-4.7-19.1h12.1c2.9 4.5 6.1 9.4 5.6 14.9 0.5 7.2-4.2 13.3-7.4 19.5-3.7 5.9-6.5 13.3-3.4 20 2.9 6.4 7.7 11.7 11.1 17.8 2.8 4.5 3.1 10.1 1.9 15.2-2.1 5.6-5.2 12.7-7.7 18.1h-13.1c1.7-5 4.4-9.6 6.7-14.3z"/>
			<path id="path2250" class="s1" d="m84.4 144.2c2.6-5.2 3.3-11.4 0.6-16.6-2.1-4.1-4.9-7.8-7.4-11.6-4.1-5.3-7.3-11.9-5.9-18.6 0.8-4.8 3.8-9 6.1-13.2 2.2-3.7 4.5-7.8 5.5-12.1 1.2-5.8-0.6-14.5-4.7-19.1h12.1c2.9 4.5 6.2 9.4 5.6 14.9 0.5 7.2-4.2 13.3-7.3 19.5-3.8 5.9-6.6 13.3-3.5 20 2.9 6.4 7.7 11.7 11.1 17.8 2.8 4.5 3.1 10.1 1.9 15.2-2.1 5.6-5.1 12.7-7.7 18.1h-13.1c1.7-5 4.5-9.6 6.7-14.3z"/>
		</g>
		<path id="모양 2" class="s2" d="m84 20c0-2.2 1.8-4 4-4h24c2.2 0 4 1.8 4 4v24c0 2.2-1.8 4-4 4h-24c-2.2 0-4-1.8-4-4z"/>
	</g>
</svg>