<svg version="1.2" xmlns="http://www.w3.org/2000/svg" viewBox="0 0 132 212" width="132" height="212">
	<title>Zener_Unk_Card-svg</title>
	<style>
		.s0 { fill: #4324ff;stroke: #000000;stroke-linecap: round;stroke-linejoin: round;stroke-width: 4 } 
		.s1 { fill: #ff4242 } 
	</style>
	<g id="g1937">
		<path id="rect2091" class="s0" d="m17.3 2h97c8.5 0 15.3 6.8 15.3 15.3v177.4c0 8.4-6.8 15.2-15.3 15.2h-97c-8.5 0-15.3-6.8-15.3-15.2v-177.4c0-8.5 6.8-15.3 15.3-15.3z"/>
		<path id="모양 1" fill-rule="evenodd" class="s1" d="m41.2 91.8c-4 0-7.2-3.2-7.2-7.2 0-15.8 12.8-28.6 28.6-28.6h7.2c15.8 0 28.6 12.8 28.6 28.6v0.8c0 9.8-5 18.8-13.2 24.1l-9.4 6.1c-1.5 0.9-2.5 2.6-2.5 4.5v0.3c0 3.9-3.1 7.1-7.1 7.1-4 0-7.2-3.2-7.2-7.1v-0.3c0-6.7 3.4-13 9.1-16.6l9.4-6c4.1-2.7 6.6-7.2 6.6-12.1v-0.8c0-7.9-6.4-14.3-14.3-14.3h-7.2c-7.9 0-14.3 6.4-14.3 14.3 0 4-3.2 7.2-7.1 7.2zm18.7 61.7c-1.7-1.6-2.6-3.9-2.6-6.3 0-2.4 0.9-4.6 2.6-6.3 1.6-1.7 3.9-2.6 6.3-2.6 2.4 0 4.6 0.9 6.3 2.6 1.7 1.7 2.6 3.9 2.6 6.3 0 2.4-0.9 4.7-2.6 6.3-1.7 1.7-3.9 2.7-6.3 2.7-2.4 0-4.7-1-6.3-2.7z"/>
	</g>
</svg>