<svg version="1.2" xmlns="http://www.w3.org/2000/svg" viewBox="0 0 132 212" width="132" height="212">
	<title>Zener_Star_Card-svg</title>
	<style>
		.s0 { fill: #ffffff;stroke: #000000;stroke-linecap: round;stroke-linejoin: round;stroke-width: 4 } 
		.s1 { fill: none;stroke: #29c430;stroke-linecap: round;stroke-linejoin: round;stroke-width: 10 } 
		.s2 { fill: #00ff00 } 
	</style>
	<g id="g1931">
		<path id="rect2087" class="s0" d="m17.3 2h97c8.5 0 15.3 6.8 15.3 15.3v177.4c0 8.4-6.8 15.2-15.3 15.2h-97c-8.5 0-15.3-6.8-15.3-15.2v-177.4c0-8.5 6.8-15.3 15.3-15.3z"/>
		<path id="path2821" fill-rule="evenodd" class="s1" d="m96.5 152.9l-30.9-17.2-31.1 16.8 7.1-34.2-26-23.8 35.3-3.9 15.1-31.6 14.7 31.8 35.3 4.3-26.2 23.6z"/>
		<path id="모양 2" class="s2" d="m84 20c0-2.2 1.8-4 4-4h24c2.2 0 4 1.8 4 4v24c0 2.2-1.8 4-4 4h-24c-2.2 0-4-1.8-4-4z"/>
	</g>
</svg>