<svg version="1.2" xmlns="http://www.w3.org/2000/svg" viewBox="0 0 132 212" width="132" height="212">
	<title>Zener_Circle_Card-svg</title>
	<style>
		.s0 { fill: #ffffff;stroke: #000000;stroke-linecap: round;stroke-linejoin: round;stroke-width: 4 } 
		.s1 { fill: none;stroke: #f6c708;stroke-linecap: round;stroke-linejoin: round;stroke-width: 10 } 
		.s2 { fill: #ff0000 } 
	</style>
	<g id="g1937">
		<path id="rect2091" class="s0" d="m17.3 2h97c8.5 0 15.3 6.8 15.3 15.3v177.4c0 8.4-6.8 15.2-15.3 15.2h-97c-8.5 0-15.3-6.8-15.3-15.2v-177.4c0-8.5 6.8-15.3 15.3-15.3z"/>
		<path id="path2093" fill-rule="evenodd" class="s1" d="m114 106c0 26.8-21.6 48.6-48.2 48.6-26.6 0-48.2-21.8-48.2-48.6 0-26.9 21.6-48.6 48.2-48.6 26.6 0 48.2 21.7 48.2 48.6z"/>
		<path id="모양 2" class="s2" d="m84 20c0-2.2 1.8-4 4-4h24c2.2 0 4 1.8 4 4v24c0 2.2-1.8 4-4 4h-24c-2.2 0-4-1.8-4-4z"/>
	</g>
</svg>